# xmcd
#
# Track frame offsets:
# 150
# 15060
# 29838
# 42896
# 56436
# 68453
# 82544
# 96030
# 109448
# 121760
# 135500
# 149272
# 162930
# 176165
# 189859
# 202865
# 217028
# 230549
# 243710
# 257326
# 271716
# 284679
# 297528
# 310158
#
# Disc length: 4223 seconds
#
#
# Revision: 0
# Processed by: cddbd v1.5.2PL0 Copyright (c) Steve Scherf et al.
# Submitted via: FreeRIP 2.945 
#
DISCID=4d107d18
DTITLE=Steinbeck-J1939 - Grapes-Wrath18
DYEAR=1939
DGENRE=National Folk
TTITLE0=GW 1801
TTITLE1=GW 1802
TTITLE2=GW 1803
TTITLE3=GW 1804
TTITLE4=GW 1805
TTITLE5=GW 1806
TTITLE6=GW 1807
TTITLE7=GW 1808
TTITLE8=GW 1809
TTITLE9=GW 1810
TTITLE10=GW 1811
TTITLE11=GW 1812
TTITLE12=GW 1813
TTITLE13=GW 1814
TTITLE14=GW 1815
TTITLE15=GW 1816
TTITLE16=GW 1817
TTITLE17=GW 1818
TTITLE18=GW 1819
TTITLE19=GW 1820
TTITLE20=GW 1821
TTITLE21=GW 1822
TTITLE22=GW 1823
TTITLE23=GW 1824
EXTD=The Grapes of Wrath by John Steinbeck\nread by Dylan Baker recorded books 18 CDs\nnational folk country
EXTT0=
EXTT1=
EXTT2=
EXTT3=
EXTT4=
EXTT5=
EXTT6=
EXTT7=
EXTT8=
EXTT9=
EXTT10=
EXTT11=
EXTT12=
EXTT13=
EXTT14=
EXTT15=
EXTT16=
EXTT17=
EXTT18=
EXTT19=
EXTT20=
EXTT21=
EXTT22=
EXTT23=
PLAYORDER=
